<?xml version="1.0" encoding="UTF-8" standalone="no"?>
<svg width="344px" height="284px" viewBox="0 0 344 284" version="1.1" xmlns="http://www.w3.org/2000/svg"
     xmlns:xlink="http://www.w3.org/1999/xlink">
    <!-- Generator: Sketch 3.7.2 (28276) - http://www.bohemiancoding.com/sketch -->
    <title>newwindmill</title>

    <!-- INPUTS: {{millMode}}, {{millSpeed}} -->

    <desc>Created with Sketch.</desc>
    <style type="text/css">
        #windfan {
            transform-origin: 100px 100px;
            animation-iteration-count: infinite;
            animation-timing-function: linear;
        }

        #windfan.running {
            animation-name: spin;
        }

        #windfan.slow {
            animation-duration: 5000ms;
        }

        #windfan.medium {
            animation-duration: 2500ms;
        }

        #windfan.fast {
            animation-duration: 1000ms;
        }

        .text {
            text-align: center;
            display: block;
            text-overflow: ellipsis;
            white-space: nowrap;
            overflow: hidden;
            max-width: 150px;
        }

        @keyframes spin {
            from {
                transform: rotate(0deg);
            }

            to {
                transform: rotate(360deg);
            }
        }

    </style>
    <defs>
        <linearGradient x1="50%" y1="0%" x2="50%" y2="78.2279644%" id="linearGradient-1">
            <stop stop-color="#1f77b4" offset="0%"></stop>
            <stop stop-color="#FFFFFF" offset="100%"></stop>
        </linearGradient>
        <linearGradient x1="50%" y1="0%" x2="50%" y2="100%" id="linearGradient-2">
            <stop stop-color="#1f77b4" offset="0%"></stop>
            <stop stop-color="#1f77b4" offset="100%"></stop>
        </linearGradient>
        <linearGradient x1="183.365894%" y1="92.7418172%" x2="-100.978355%" y2="92.7418113%" id="linearGradient-3">
            <stop stop-color="#D9D9D9" offset="0%"></stop>
            <stop stop-color="#FAF7F7" offset="46.5621014%"></stop>
            <stop stop-color="#D9D9D9" offset="100%"></stop>
        </linearGradient>
        <linearGradient x1="50%" y1="0%" x2="50%" y2="100%" id="linearGradient-4">
            <stop stop-color="#F1F1F1" offset="0%"></stop>
            <stop stop-color="#FFFFFF" offset="100%"></stop>
        </linearGradient>
        <path d="M103.750606,80 C107.199651,80 110,76.748084 110,73.6896325 L103.889751,12.6968657 C103.889751,9.63841394 103.866964,6 100.417434,6 L99.5825656,6 C96.1335206,6 95.8319594,9.63841394 95.8319594,12.6968657 L90,73.6896325 C90,76.748084 92.7955006,80 96.2498787,80 L103.750606,80 L103.750606,80 L103.750606,80 Z"
              id="path-5"></path>
        <mask id="mask-6" maskContentUnits="userSpaceOnUse" maskUnits="objectBoundingBox" x="-1" y="-1" width="22"
              height="76">
            <rect x="89" y="5" width="22" height="76" fill="white"></rect>
            <use xlink:href="#path-5" fill="black"></use>
        </mask>
        <path d="M152.089347,167.205398 C155.538392,167.205398 158.338741,163.953482 158.338741,160.895031 L152.228492,99.9022637 C152.228492,96.843812 152.205705,93.2053981 148.756176,93.2053981 L147.921307,93.2053981 C144.472262,93.2053981 144.170701,96.843812 144.170701,99.9022637 L138.338741,160.895031 C138.338741,163.953482 141.134242,167.205398 144.58862,167.205398 L152.089347,167.205398 L152.089347,167.205398 L152.089347,167.205398 Z"
              id="path-7"></path>
        <mask id="mask-8" maskContentUnits="userSpaceOnUse" maskUnits="objectBoundingBox" x="-1" y="-1" width="22"
              height="76">
            <rect x="137.338741" y="92.2053981" width="22" height="76" fill="white"></rect>
            <use xlink:href="#path-7" fill="black"></use>
        </mask>
        <path d="M62.1957776,161.734057 L56.0855284,100.741291 C56.0855284,97.6828389 56.0627415,94.044425 52.613212,94.044425 L51.7783433,94.044425 C48.3292982,94.044425 48.0277371,97.6828389 48.0277371,100.741291 L44.0391323,142.45558 C43.4246807,148.881739 42.1957776,161.734057 42.1957776,161.734057 C42.1957776,164.792509 44.9912782,168.044425 48.4456563,168.044425 L55.9463835,168.044425 C59.3954285,168.044425 62.1957776,164.792509 62.1957776,161.734057 Z"
              id="path-9"></path>
        <mask id="mask-10" maskContentUnits="userSpaceOnUse" maskUnits="objectBoundingBox" x="-1" y="-1" width="22"
              height="76">
            <rect x="41.1957776" y="93.044425" width="22" height="76" fill="white"></rect>
            <use xlink:href="#path-9" fill="black"></use>
        </mask>
        <linearGradient x1="50%" y1="0%" x2="50%" y2="100%" id="linearGradient-11">
            <stop stop-color="#D9D9D9" offset="0%"></stop>
            <stop stop-color="#FFFFFF" offset="100%"></stop>
        </linearGradient>
    </defs>
    <g id="Page-1" stroke="none" stroke-width="1" fill="none" fill-rule="evenodd">
        <g id="newwindmill">
            <rect id="Rectangle-2" fill="url(#linearGradient-1)" x="-111.016821" y="-64" width="566.033642"
                  height="348"></rect>
            <path d="M-111.016821,200.077457 C-111.016821,200.077457 77.6885021,182 172,182 C266.366383,182 455.016821,207.817685 455.016821,207.817685 L455.016821,310 L-111.016821,310 L-111.016821,200.077457 Z"
                  id="Rectangle-2" fill="url(#linearGradient-2)"></path>
            <g id="Windmill" transform="translate(0.000000, 14.000000)">
                <polygon id="Shape" fill="url(#linearGradient-3)" points="103 120 97 120 91 230 109 230"></polygon>
                <g id="windfan"
                   ng-class="{running: (millMode !== true && millSpeed > 0), slow: millSpeed < 33, medium: millSpeed >= 33 && millSpeed < 66, fast: millSpeed >= 66 }">
                    <rect id="Rectangle-1" fill-opacity="0" fill="#FFFFFF" x="0" y="0" width="200" height="200"></rect>
                    <g id="Shape">
                        <use fill="url(#linearGradient-4)" fill-rule="evenodd" xlink:href="#path-5"></use>
                        <use stroke="#D9D9D9" mask="url(#mask-6)" stroke-width="1" xlink:href="#path-5"></use>
                    </g>
                    <g id="Shape"
                       transform="translate(148.338741, 130.205398) rotate(-238.000000) translate(-148.338741, -130.205398) ">
                        <use fill="url(#linearGradient-4)" fill-rule="evenodd" xlink:href="#path-7"></use>
                        <use stroke="#D9D9D9" mask="url(#mask-8)" stroke-width="1" xlink:href="#path-7"></use>
                    </g>
                    <g id="Shape"
                       transform="translate(52.195778, 131.044425) rotate(-123.000000) translate(-52.195778, -131.044425) ">
                        <use fill="url(#linearGradient-4)" fill-rule="evenodd" xlink:href="#path-9"></use>
                        <use stroke="#D9D9D9" mask="url(#mask-10)" stroke-width="1" xlink:href="#path-9"></use>
                    </g>
                    <circle id="Oval" fill="#fff" cx="100" cy="100" r="9"></circle>
                </g>
            </g>
            <g id="info" transform="translate(194.000000, 99.000000)" fill="#333333" font-weight="normal">
                <text id="Current-speed" font-size="10" text-anchor="middle" x="75" y="43">
                    Current speed
                </text>
                <text ng-show="millMode !== true" id="46" font-size="28" text-anchor="middle" x="75" y="72">
                    {{millSpeed}}
                </text>
                <text ng-show="millMode === true" id="46" font-size="28" text-anchor="middle" x="75" y="72">
                    0
                </text>
            </g>
        </g>
    </g>

</svg>
